<svg version="1.1" id="Layer_1" xmlns="http://www.w3.org/2000/svg" xmlns:xlink="http://www.w3.org/1999/xlink" x="0px" y="0px"
	 viewBox="0 0 7000 2000" style="enable-background:new 0 0 7000 2000;" xml:space="preserve">
<style type="text/css">
	.st0{fill:#FFFFFF;}
</style>
<path class="st0" d="M960,200c123.8-1.9,219.4,15.9,308,46c41.1,13.9,76.3,58.5,40,105c-19.2,24.6-56.4,28-91,16
	c-69.8-24.2-171.7-49.5-269-35c-195.6,29.2-284.3,79-406,179c-122,100.2-249.7,351.3-204,593c9.3,49.4,20.3,95.6,37,138
	c9.7,22.3,19.3,44.7,29,67c10.8,55.5-49.6,97.2-97,70c-31.7-18.3-43.1-64-57-100c-43-110.9-68.8-289.4-36-434
	c66.7-294.1,242.6-492,501-594c48.4-19.1,101.7-31.3,158-42L960,200z M1443,310c29,3,55.8,14.8,74,36.1
	c37.2,43.3,19.2,108.1,11,130.9c-10.1,27.9-30.2,57.5-67,84c-26.1,18.7-56.3,31-88,36c-1.3-1.7-2.7-3.3-4-5
	c26.8-14.5,44.5-44.3,47-77c-65.6-7.8-103.1-89.2-69-151c4.8-8.4,10.7-16.1,17.6-23c11-10.6,24.1-18.8,38.4-24
	C1415.8,312.3,1429.4,309.9,1443,310z M1720,323c16,10,29.2,23.8,38.7,40.2c23.5,41.3,14,89.1,3.3,113.8
	c-23.5,54.4-64.1,87.8-116,109c-13.8,5.6-29.2,12.9-44,10c-0.3-1-0.7-2-1-3c22.9-20,42.5-36.3,48-78c-24.5-4.8-46.7-17.4-62-37
	c-28.4-36.5-23.1-82.9-9-111c11.1-21.9,29.5-39.2,52-49C1658.9,305.8,1691.7,309.6,1720,323z M1690,641c7.6,2.8,14.8,6.7,21.4,11.4
	c36.2,26,40.5,73.1,46.6,90.6c39.1,112.5,58,290.5,25,427c-77.4,320.4-288.7,533.3-609,611c-106.5,25.8-257.4,22.8-361-3
	c-25.3-6.3-54.1-10-72-24c-40.6-31.6-24-101,21-115c31.2-9.7,62.3,7.8,87,14c35.7,8.9,109.9,20.4,188,16c12-0.7,23.8-1.7,36-3
	c34.4-3.8,68.5-10.2,102-19c76.2-20.3,237.1-82.2,355-237c57-74.8,99.2-161.6,125-268c4.7-35,9.3-70,14-105
	c12.5-83.7-15.9-205.3-38-263c-7.3-17-14.7-34-22-51c-4.3-12.6-4.4-26.3-0.4-39c5.1-15.8,16.8-28.2,30.4-36
	C1654.5,639.3,1672.7,636.8,1690,641z M1206,701c16.1-1.9,30.8,0.5,43,8c20.6,12.7,26.6,35.5,30,47c5.1,17.4,17.3,40.7,26,64
	c3.9,10.5,15,35.5,23,54c9.3,21.5,18.7,42.5,28,64c10.7,24.7,29.3,70.8,44,107c6.9,16.9,16.1,40.6,20,49
	c33.1,70.6,53.3,106.6,60,147c7,42.5-42.2,72.2-77,50c-28.1-17.9-49.4-94.4-65-128h-244c-5.7,26.3-42,112.9-60,126
	c-28.8,21-69.5,4.8-76-25c-7.5-34.2,33-105.7,45-134c43.7-104,87.3-208,131-312C1153.2,772.4,1161.8,722.4,1206,701z M631,1190h169
	c21.3,0,50.5-3.5,67,3c19.7,7.8,39.3,31,32,62c-4.4,18.4-20,33.3-38,38c-74.7,0.3-149.3,0.7-224,1c-33.6,0-76.5,4.6-96-10
	c-29.4-21.9-20-91.6-20-142V830c0-65-7.8-117,49-126c66.3-10.5,61,59.3,61,118V1190z M1215,879c-25.7,60.7-51.3,121.3-77,182h156
	C1267.7,1000.3,1241.3,939.7,1215,879z M389,1416h8l2,3v1c-25.5,10.9-43.8,41.4-48,77c23.3,3.8,44.3,15.1,59,33
	c8.2,10,15.7,23.9,19.4,43.7c6.1,32.5-0.9,82.2-40.4,110.3c-21.6,15.3-46.9,19.3-66,18c-10.9-0.9-21.7-3.3-32-7
	c-3.4-1.2-6.7-2.5-10-4c-22.8-17-39.6-38.7-48-64c-22.9-69.4,25.4-136.9,61-168c17.6-15.3,38-27.2,60-35
	C365.7,1421.3,377.3,1418.7,389,1416z M620,1416c3.8-1.1,7.8-0.3,11,2v2c-26.8,14.5-44.5,44.3-47,77c29,6.6,55.2,23.7,70,50
	c23.7,42.3,12.6,99.2-25,131c-29.7,25.2-75.1,33.8-112,15c-31.7-16.1-47-49.6-53-74c-16.2-65.8,24.3-130.8,66-163
	c11.4-8.8,26.1-17.2,44-25C588.8,1424.5,604.2,1419.5,620,1416z"/>
<g>
	<path class="st0" d="M2576.2,1199.7c14.7,0,27.1,4.7,37,14c9.9,9.3,14.9,21.4,14.9,36.1c0,14.2-5,25.9-14.9,35.3
		c-9.9,9.3-22.2,14-37,14h-276.2c-14.7,0-27.1-5-37-14.9c-9.9-9.9-14.9-22.2-14.9-37V756c0-14.7,5.1-27.1,15.3-37
		c10.2-9.9,23.2-14.9,39.1-14.9c13.6,0,25.6,5,36.1,14.9c10.5,9.9,15.7,22.2,15.7,37v458.1l-18.7-14.5H2576.2z"/>
	<path class="st0" d="M2761.5,789.1c-19.3,0-32.9-3.1-40.8-9.4c-7.9-6.2-11.9-17.3-11.9-33.1v-16.1c0-16.4,4.4-27.6,13.2-33.6
		c8.8-5.9,22.2-8.9,40.4-8.9c19.8,0,33.7,3.1,41.7,9.4c7.9,6.2,11.9,17.3,11.9,33.1v16.1c0,16.4-4.2,27.6-12.8,33.6
		C2794.6,786.2,2780.7,789.1,2761.5,789.1z M2813.3,1247.3c0,14.7-4.8,27.1-14.4,37c-9.6,9.9-21.8,14.9-36.6,14.9
		c-14.7,0-26.9-5-36.5-14.9c-9.6-9.9-14.5-22.2-14.5-37v-351c0-14.7,4.8-27.1,14.5-37c9.6-9.9,21.8-14.9,36.5-14.9
		c14.7,0,26.9,5,36.6,14.9c9.6,9.9,14.4,22.2,14.4,37V1247.3z"/>
	<path class="st0" d="M3161,835.9c41.9,0,73.8,8.8,95.6,26.4c21.8,17.6,36.8,40.9,45,70.1c8.2,29.2,12.3,61.6,12.3,97.3v217.6
		c0,14.7-4.8,27.1-14.5,37c-9.6,9.9-21.8,14.9-36.5,14.9c-14.7,0-26.9-5-36.6-14.9c-9.6-9.9-14.4-22.2-14.4-37v-217.6
		c0-18.7-2.4-35.6-7.2-50.6c-4.8-15-13.5-27.1-25.9-36.1c-12.5-9.1-30.3-13.6-53.6-13.6c-22.7,0-41.8,4.5-57.4,13.6
		c-15.6,9.1-27.5,21.1-35.7,36.1c-8.2,15-12.3,31.9-12.3,50.6v217.6c0,14.7-4.8,27.1-14.5,37c-9.6,9.9-21.8,14.9-36.5,14.9
		c-14.7,0-26.9-5-36.5-14.9c-9.6-9.9-14.5-22.2-14.5-37v-351c0-14.7,4.8-27.1,14.5-37c9.6-9.9,21.8-14.9,36.5-14.9
		c14.7,0,26.9,5,36.5,14.9c9.6,9.9,14.5,22.2,14.5,37v36.5l-12.8-2.5c5.1-9.6,12.5-20,22.1-31c9.6-11.1,21-21.4,34-31
		c13-9.6,27.8-17.4,44.2-23.4C3123.9,838.9,3141.7,835.9,3161,835.9z"/>
	<path class="st0" d="M3608.9,835.9c23.8,0,45.6,3.7,65.5,11c19.8,7.4,37,16.7,51.4,28.1c14.5,11.3,25.8,22.8,34,34.4
		c8.2,11.6,12.3,21.4,12.3,29.3l-22.1,11v-62c0-14.7,4.8-27.1,14.5-37c9.6-9.9,21.8-14.9,36.5-14.9c14.7,0,26.9,4.8,36.5,14.5
		c9.6,9.6,14.5,22.1,14.5,37.4V1266c0,49.3-10.6,88.8-31.9,118.6s-49.2,51.3-83.7,64.6c-34.6,13.3-71.7,20-111.4,20
		c-11.3,0-26.1-1.4-44.2-4.2c-18.1-2.8-35.4-6.2-51.8-10.2c-16.4-4-28.9-7.6-37.4-11c-17-7.4-28.8-16.6-35.3-27.6
		c-6.5-11-7.8-22.8-3.8-35.3c5.1-16.4,13.3-27.6,24.7-33.6c11.3-6,23.2-6.7,35.7-2.1c5.7,1.7,15,5.1,28.1,10.2
		c13,5.1,27.3,9.8,42.9,14c15.6,4.2,29.3,6.4,41.2,6.4c42.5,0,74-8.5,94.4-25.5c20.4-17,30.6-40.5,30.6-70.5v-74l10.2,7.6
		c0,7.4-3.8,16.3-11.5,26.8c-7.7,10.5-18.1,20.8-31.5,31c-13.3,10.2-29,18.8-47.2,25.9c-18.1,7.1-37.4,10.6-57.8,10.6
		c-40.2,0-76.5-10.1-108.8-30.2c-32.3-20.1-57.8-47.9-76.5-83.3c-18.7-35.4-28-76.1-28-122c0-46.5,9.4-87.4,28-122.8
		c18.7-35.4,43.9-63.2,75.7-83.3C3534.4,846,3569.8,835.9,3608.9,835.9z M3625.1,929.4c-25.5,0-47.9,6.2-67.1,18.7
		c-19.3,12.5-34.3,29.5-45.1,51c-10.8,21.5-16.1,45.9-16.1,73.1c0,26.6,5.4,50.7,16.1,72.2c10.8,21.5,25.8,38.5,45.1,51
		c19.3,12.5,41.6,18.7,67.1,18.7c26.1,0,48.7-6.2,68-18.7c19.3-12.5,34.3-29.5,45.1-51c10.8-21.5,16.1-45.6,16.1-72.2
		c0-27.2-5.4-51.6-16.1-73.1c-10.8-21.5-25.8-38.5-45.1-51C3673.8,935.6,3651.1,929.4,3625.1,929.4z"/>
	<path class="st0" d="M4293.2,844.4c14.7,0,26.9,5,36.5,14.9c9.6,9.9,14.5,22.2,14.5,37v215.9c0,60.1-16.7,107.7-50.2,142.8
		c-33.4,35.1-81.6,52.7-144.5,52.7c-62.9,0-110.9-17.6-144.1-52.7c-33.1-35.1-49.7-82.7-49.7-142.8V896.2c0-14.7,4.8-27.1,14.5-37
		c9.6-9.9,21.8-14.9,36.5-14.9c14.7,0,26.9,5,36.5,14.9c9.6,9.9,14.5,22.2,14.5,37v215.9c0,34.6,7.7,60.2,23,76.9
		c15.3,16.7,38.2,25.1,68.8,25.1c31.2,0,54.4-8.4,69.7-25.1c15.3-16.7,23-42.4,23-76.9V896.2c0-14.7,4.8-27.1,14.5-37
		C4266.2,849.4,4278.4,844.4,4293.2,844.4z"/>
	<path class="st0" d="M4498.9,789.1c-19.3,0-32.9-3.1-40.8-9.4c-7.9-6.2-11.9-17.3-11.9-33.1v-16.1c0-16.4,4.4-27.6,13.2-33.6
		c8.8-5.9,22.2-8.9,40.4-8.9c19.8,0,33.7,3.1,41.7,9.4c7.9,6.2,11.9,17.3,11.9,33.1v16.1c0,16.4-4.2,27.6-12.8,33.6
		C4532,786.2,4518.1,789.1,4498.9,789.1z M4550.7,1247.3c0,14.7-4.8,27.1-14.5,37c-9.6,9.9-21.8,14.9-36.5,14.9
		c-14.7,0-26.9-5-36.5-14.9c-9.6-9.9-14.5-22.2-14.5-37v-351c0-14.7,4.8-27.1,14.5-37c9.6-9.9,21.8-14.9,36.5-14.9
		c14.7,0,26.9,5,36.5,14.9c9.6,9.9,14.5,22.2,14.5,37V1247.3z"/>
	<path class="st0" d="M4628.9,1228.6c-5.7-7.9-8.2-18.1-7.7-30.6c0.6-12.5,7.9-23.2,22.1-32.3c9.1-5.7,18.7-8.1,28.9-7.2
		s20.1,6.1,29.8,15.7c16.4,16.4,33.7,29.2,51.8,38.2c18.1,9.1,40.8,13.6,68,13.6c8.5-0.6,17.9-1.8,28.1-3.8
		c10.2-2,19.1-6.5,26.8-13.6c7.7-7.1,11.5-18,11.5-32.7c0-12.5-4.2-22.4-12.8-29.8c-8.5-7.4-19.7-13.6-33.6-18.7
		c-13.9-5.1-29.3-9.9-46.3-14.4c-17.6-5.1-35.6-10.8-54-17c-18.4-6.2-35.3-14.3-50.6-24.2c-15.3-9.9-27.8-23.1-37.4-39.5
		c-9.6-16.4-14.5-37.1-14.5-62.1c0-28.3,7.9-52.4,23.8-72.2c15.9-19.8,36.4-35.1,61.6-45.9c25.2-10.8,51.7-16.1,79.5-16.1
		c17.6,0,36,2.1,55.2,6.4c19.3,4.2,37.7,11,55.2,20.4c17.6,9.4,32.3,21.7,44.2,37c6.2,8.5,9.9,18.7,11,30.6
		c1.1,11.9-4.2,22.7-16.2,32.3c-8.5,6.8-18.4,9.8-29.8,8.9c-11.3-0.9-20.7-4.7-28-11.5c-9.6-12.5-22.5-22.4-38.7-29.8
		c-16.2-7.4-34.7-11.1-55.7-11.1c-8.5,0-17.7,1-27.6,3c-9.9,2-18.6,6.2-25.9,12.8c-7.4,6.5-11.1,16.9-11.1,31c0,13,4.2,23.4,12.8,31
		s20,13.9,34.4,18.7c14.4,4.8,29.9,9.5,46.3,14c17,4.5,34.3,9.9,51.9,16.2c17.6,6.2,33.7,14.4,48.5,24.7
		c14.7,10.2,26.6,23.4,35.7,39.5c9.1,16.1,13.6,36.7,13.6,61.6c0,28.9-8.5,53.5-25.5,74s-38.2,35.8-63.8,46.3
		c-25.5,10.5-51.6,15.7-78.2,15.7c-33.4,0-66.9-5.8-100.3-17.4C4678.8,1278.6,4651,1258.1,4628.9,1228.6z"/>
	<path class="st0" d="M5070.1,852.9h201.5c13.6,0,24.9,4.5,34,13.6c9.1,9.1,13.6,20.4,13.6,34c0,13-4.5,23.9-13.6,32.7
		c-9.1,8.8-20.4,13.2-34,13.2h-201.5c-13.6,0-24.9-4.5-34-13.6c-9.1-9.1-13.6-20.4-13.6-34c0-13,4.5-23.9,13.6-32.7
		C5045.1,857.3,5056.5,852.9,5070.1,852.9z M5161,746.6c14.7,0,26.8,5,36.1,14.9c9.4,9.9,14,22.2,14,37v378.3
		c0,7.9,1.6,14.4,4.7,19.5c3.1,5.1,7.4,8.8,12.8,11.1c5.4,2.3,11.2,3.4,17.4,3.4c6.8,0,13-1.3,18.7-3.8c5.7-2.5,12.2-3.8,19.5-3.8
		c7.9,0,15.2,3.7,21.7,11c6.5,7.4,9.8,17.6,9.8,30.6c0,15.9-8.6,28.9-25.9,39.1c-17.3,10.2-35.8,15.3-55.7,15.3
		c-11.9,0-25.1-1-39.5-3c-14.5-2-28-6.8-40.8-14.4s-23.4-19.4-31.9-35.3c-8.5-15.9-12.8-37.7-12.8-65.4V798.5c0-14.7,5-27.1,14.9-37
		C5133.9,751.6,5146.3,746.6,5161,746.6z"/>
	<path class="st0" d="M5877.5,837.6l-183.6,431.8c-4,10.8-10.1,19.1-18.3,25.1c-8.2,5.9-17.1,8.9-26.8,8.9c-15.3,0-26.6-4.2-34-12.8
		c-7.4-8.5-11-19-11-31.5c0-5.1,0.8-10.5,2.5-16.2L5818,734.7c4.5-11.3,11.5-20.1,20.8-26.4c9.3-6.2,19.4-8.8,30.2-7.6
		c10.2,0,19.7,3,28.5,8.9c8.8,6,15.2,14.3,19.1,25.1l209.1,498.1c2.8,7.4,4.2,14.2,4.2,20.4c0,15.3-5,27.5-14.9,36.5
		c-9.9,9.1-20.8,13.6-32.7,13.6c-10.2,0-19.4-3.1-27.6-9.4c-8.2-6.2-14.6-14.7-19.1-25.5l-182.8-425.8L5877.5,837.6z M5720.3,1165.7
		l46.8-97.8h229.5l16.1,97.8H5720.3z"/>
	<path class="st0" d="M6237.9,789.1c-19.3,0-32.9-3.1-40.8-9.4c-7.9-6.2-11.9-17.3-11.9-33.1v-16.1c0-16.4,4.4-27.6,13.2-33.6
		c8.8-5.9,22.2-8.9,40.4-8.9c19.8,0,33.7,3.1,41.7,9.4c7.9,6.2,11.9,17.3,11.9,33.1v16.1c0,16.4-4.2,27.6-12.8,33.6
		C6271.1,786.2,6257.2,789.1,6237.9,789.1z M6289.8,1247.3c0,14.7-4.8,27.1-14.5,37c-9.6,9.9-21.8,14.9-36.5,14.9
		c-14.7,0-26.9-5-36.5-14.9c-9.6-9.9-14.5-22.2-14.5-37v-351c0-14.7,4.8-27.1,14.5-37c9.6-9.9,21.8-14.9,36.5-14.9
		c14.7,0,26.9,5,36.5,14.9c9.6,9.9,14.5,22.2,14.5,37V1247.3z"/>
	<path class="st0" d="M6762.4,670.1c14.7,0,26.9,4.8,36.5,14.5c9.6,9.6,14.5,22.1,14.5,37.4v525.3c0,14.7-4.8,27.1-14.5,37
		c-9.6,9.9-21.8,14.9-36.5,14.9c-14.7,0-26.9-5-36.5-14.9c-9.6-9.9-14.5-22.2-14.5-37v-41.6l18.7,7.6c0,7.4-4,16.3-11.9,26.8
		c-7.9,10.5-18.7,20.8-32.3,31c-13.6,10.2-29.6,18.8-48,25.9c-18.4,7.1-38.4,10.6-59.9,10.6c-39.1,0-74.5-10.1-106.2-30.2
		c-31.7-20.1-56.8-47.9-75.2-83.3c-18.4-35.4-27.6-76.1-27.6-122c0-46.5,9.2-87.4,27.6-122.8c18.4-35.4,43.2-63.2,74.4-83.3
		c31.2-20.1,65.7-30.2,103.7-30.2c24.4,0,46.8,3.7,67.1,11c20.4,7.4,38.1,16.7,53.1,28.1c15,11.3,26.6,22.8,34.9,34.4
		c8.2,11.6,12.3,21.4,12.3,29.3l-30.6,11V722c0-14.7,4.8-27.1,14.5-37C6735.5,675.1,6747.6,670.1,6762.4,670.1z M6590.7,1214.1
		c24.9,0,46.8-6.2,65.5-18.7c18.7-12.5,33.3-29.5,43.8-51c10.5-21.5,15.7-45.6,15.7-72.2c0-27.2-5.2-51.6-15.7-73.1
		c-10.5-21.5-25.1-38.5-43.8-51c-18.7-12.5-40.5-18.7-65.5-18.7c-24.4,0-45.9,6.2-64.6,18.7c-18.7,12.5-33.3,29.5-43.8,51
		c-10.5,21.5-15.7,45.9-15.7,73.1c0,26.6,5.2,50.7,15.7,72.2c10.5,21.5,25.1,38.5,43.8,51
		C6544.8,1207.9,6566.3,1214.1,6590.7,1214.1z"/>
</g>
</svg>
